<svg xmlns="http://www.w3.org/2000/svg" viewBox="0 0 400 300">
  <defs>
    <linearGradient id="sky" x1="0%" y1="0%" x2="0%" y2="100%">
      <stop offset="0%" style="stop-color:#87CEEB"/>
      <stop offset="100%" style="stop-color:#E0F6FF"/>
    </linearGradient>
  </defs>
  <rect width="400" height="300" fill="url(#sky)"/>
  <rect y="190" width="400" height="110" fill="#228B22"/>
  <!-- Church/Matrix -->
  <rect x="150" y="100" width="100" height="90" fill="#F5F5DC"/>
  <polygon points="200,50 150,100 250,100" fill="#8B4513"/>
  <rect x="185" y="130" width="30" height="60" fill="#4169E1"/>
  <circle cx="200" cy="75" r="10" fill="#FFD700"/>
  <!-- Trees around -->
  <circle cx="60" cy="150" r="40" fill="#2E8B57"/>
  <circle cx="50" cy="160" r="30" fill="#3CB371"/>
  <rect x="55" y="175" width="8" height="25" fill="#8B4513"/>
  <circle cx="340" cy="155" r="42" fill="#228B22"/>
  <circle cx="350" cy="165" r="32" fill="#32CD32"/>
  <rect x="335" y="180" width="8" height="25" fill="#8B4513"/>
  <!-- Bench -->
  <rect x="100" y="210" width="40" height="5" fill="#8B4513"/>
  <rect x="105" y="215" width="5" height="15" fill="#8B4513"/>
  <rect x="130" y="215" width="5" height="15" fill="#8B4513"/>
  <!-- Flowers -->
  <circle cx="80" cy="215" r="4" fill="#FF69B4"/>
  <circle cx="300" cy="220" r="4" fill="#FFD700"/>
  <text x="200" y="275" font-family="Arial" font-size="14" fill="#1a5c1a" text-anchor="middle" font-weight="bold">Praça da Matriz</text>
</svg>
